<svg id="Layer_1" data-name="Layer 1" xmlns="http://www.w3.org/2000/svg" viewBox="0 0 2324.688 293.9453">
	<path d="M418.103,411.5791H334.1187l25.8251-209.9609h-20.996L313.1226,411.5791H229.1382l25.8252-209.9609H233.9673L208.1421,411.5791H124.1577L160.271,117.6338H454.2163Z" transform="translate(-124.1577 -117.6338)" />
	<path d="M439.0991,411.5791l10.2881-83.9844H659.3481l2.52-20.9961H451.9067l10.4981-83.9843H672.3657l2.52-20.9961H464.9243l10.2881-83.9844H769.1577L733.0444,411.5791Z" transform="translate(-124.1577 -117.6338)" />
	<path d="M754.0405,411.5791l10.2881-83.9844h209.96l2.5195-20.9961h-209.96l10.4981-83.9843h209.96l2.52-20.9961H779.8657l10.2886-83.9844H1084.1l-36.1133,293.9453Z" transform="translate(-124.1577 -117.6338)" />
	<path d="M1283.7725,201.6182l-25.8252,209.9609h-83.9844l25.8252-209.9609h-104.98l10.2881-83.9844H1399.041l-10.2881,83.9844Z" transform="translate(-124.1577 -117.6338)" />
	<path d="M1467.9082,411.5791h-83.9844l36.1133-293.9453h83.9844Z" transform="translate(-124.1577 -117.6338)" />
	<path d="M1591.3652,261.0371l-18.4765,150.542h-83.9844l36.1133-293.9453h59.4189l132.0655,150.542,18.4765-150.542h83.9844L1782.85,411.5791h-59.4189Z" transform="translate(-124.1577 -117.6338)" />
	<path d="M2133.9043,117.6338l-10.2881,83.9844H1913.6553l-15.5371,125.9765h125.9765l2.52-20.9961h-104.98l10.498-83.9843h188.9649L2097.791,411.5791H1803.8457l36.1133-293.9453Z" transform="translate(-124.1577 -117.6338)" />
	<path d="M2448.8457,117.6338l-10.2881,83.9844H2228.5967l-2.52,20.9961h209.961l-23.3057,188.9648H2118.7871l10.2881-83.9844h209.9609l2.52-20.9961h-209.961L2154.9,117.6338Z" transform="translate(-124.1577 -117.6338)" />
</svg>