<?xml version="1.0" encoding="utf-8"?>
<!-- Generator: Adobe Illustrator 24.2.3, SVG Export Plug-In . SVG Version: 6.00 Build 0)  -->
<svg version="1.1" id="Layer_1" xmlns="http://www.w3.org/2000/svg" xmlns:xlink="http://www.w3.org/1999/xlink" x="0px" y="0px"
	 viewBox="0 0 2324.7 293.9" style="enable-background:new 0 0 2324.7 293.9;" xml:space="preserve">
<style type="text/css">
	.st0{fill:#E8E9D5;}
</style>
<g>
	<g>
		<polygon points="212.8,291.4 238.6,81.5 212.6,81.5 186.8,291.4 107.8,291.4 133.6,81.5 107.6,81.5 81.8,291.4 2.8,291.4 
			38.3,2.5 327.3,2.5 291.7,291.4 		"/>
		<path class="st0" d="M324.4,5l-35,283.9h-73.8l25.1-204.3l0.7-5.6h-5.7h-21h-4.4l-0.5,4.4l-25.3,205.5h-73.9l25.1-204.3l0.7-5.6
			h-5.7h-21h-4.4l-0.5,4.4L79.6,288.9H5.7L40.5,5H324.4 M330.1,0h-294L0,293.9h84L109.8,84h21L105,293.9h84L214.8,84h21L210,293.9
			h83.9L330.1,0L330.1,0z"/>
	</g>
</g>
<g>
	<g>
		<polygon points="317.7,291.4 327.4,212.5 537.4,212.5 540.5,186.5 330.5,186.5 340.4,107.5 550.4,107.5 553.5,81.5 343.6,81.5 
			353.3,2.5 642.2,2.5 606.7,291.4 		"/>
		<path class="st0" d="M639.3,5l-34.9,283.9H320.6l9.1-73.9h205.6h4.4l0.5-4.4l2.5-21l0.7-5.6h-5.6H333.4l9.2-74h205.6h4.4l0.5-4.4
			l2.5-21l0.7-5.6h-5.6H346.5l9.1-74H639.3 M645,0H351.1l-10.3,84h209.9l-2.5,21h-210l-10.5,84h210l-2.5,21h-210l-10.3,83.9h294
			L645,0L645,0z"/>
	</g>
</g>
<g>
	<g>
		<polygon points="632.7,291.4 642.4,212.5 852.3,212.5 855.5,186.5 645.5,186.5 655.4,107.5 865.3,107.5 868.5,81.5 658.5,81.5 
			668.2,2.5 957.1,2.5 921.6,291.4 		"/>
		<path class="st0" d="M954.2,5l-34.9,283.9H635.6l9.1-73.9h205.5h4.4l0.5-4.4l2.6-21l0.7-5.6h-5.7H648.4l9.2-74h205.5h4.4l0.5-4.4
			l2.6-21l0.7-5.6h-5.7H661.4l9.1-74H954.2 M959.9,0H666l-10.3,84h210l-2.6,21H653.2l-10.5,84h210l-2.6,21H640.2l-10.3,83.9h293.9
			L959.9,0L959.9,0z"/>
	</g>
</g>
<g>
	<g>
		<polygon points="1052.6,291.4 1078.4,81.5 973.5,81.5 983.1,2.5 1272.1,2.5 1262.4,81.5 1157.4,81.5 1131.6,291.4 		"/>
		<path class="st0" d="M1269.2,5l-9.1,74h-100.6h-4.4l-0.5,4.4l-25.3,205.5h-73.9l25.1-204.3l0.7-5.6h-5.7h-99.3l9-74H1269.2
			 M1274.9,0h-294l-10.2,84h104.9l-25.8,209.9h84L1159.6,84h105L1274.9,0L1274.9,0z"/>
	</g>
</g>
<g>
	<g>
		<polygon points="1262.6,291.4 1298.1,2.5 1377.1,2.5 1341.6,291.4 		"/>
		<path class="st0" d="M1374.2,5l-34.9,283.9h-73.9L1300.3,5H1374.2 M1379.9,0h-84l-36.1,293.9h84L1379.9,0L1379.9,0z"/>
	</g>
</g>
<g>
	<g>
		<polygon points="1600.4,291.4 1465.4,137.6 1446.5,291.4 1367.5,291.4 1403.1,2.5 1459.2,2.5 1594.1,156.3 1613,2.5 1692,2.5 
			1656.5,291.4 		"/>
		<path class="st0" d="M1689.1,5l-34.9,283.9h-52.7L1471,140.1l-7.4-8.4l-1.4,11.1l-18,146.1h-73.9l35-283.9h52.7l130.5,148.8
			l7.4,8.4l1.4-11.1l18-146.1H1689.1 M1694.8,0h-84l-18.5,150.5L1460.3,0h-59.4l-36.2,293.9h84l18.5-150.5l132.1,150.5h59.4
			L1694.8,0L1694.8,0z"/>
	</g>
</g>
<g>
	<g>
		<polygon points="1682.5,291.4 1718,2.5 2006.9,2.5 1997.3,81.5 1787.3,81.5 1771.2,212.5 1902.1,212.5 1905.3,186.5 1800.3,186.5 
			1810.2,107.5 1994.1,107.5 1971.4,291.4 		"/>
		<path class="st0" d="M2004.1,5l-9,74h-205.6h-4.4l-0.5,4.4l-15.5,126l-0.7,5.6h5.7h125.9h4.4l0.5-4.4l2.6-21l0.7-5.6h-5.7h-99.3
			l9.2-74h178.8l-22.1,178.9h-283.8L1720.2,5H2004.1 M2009.7,0h-293.9l-36.1,293.9h293.9l23.3-188.9H1808l-10.5,84h105l-2.6,21H1774
			l15.5-126h210L2009.7,0L2009.7,0z"/>
	</g>
</g>
<g>
	<g>
		<polygon points="1997.4,291.4 2007.1,212.5 2217.1,212.5 2220.2,186.5 2010.2,186.5 2032.9,2.5 2321.9,2.5 2312.2,81.5 
			2102.2,81.5 2099.1,107.5 2309.1,107.5 2286.4,291.4 		"/>
		<path class="st0" d="M2319,5l-9.1,74h-205.6h-4.4l-0.5,4.4l-2.5,21l-0.7,5.6h5.6h204.3l-22.1,178.9h-283.9l9.1-73.9h205.6h4.4
			l0.5-4.4l2.5-21l0.7-5.6h-5.6h-204.3l22.1-179H2319 M2324.7,0h-294l-23.3,189h210l-2.5,21h-210l-10.3,83.9h294l23.3-188.9h-210
			l2.5-21h210L2324.7,0L2324.7,0z"/>
	</g>
</g>
</svg>
