<svg id="Layer_1" data-name="Layer 1" xmlns="http://www.w3.org/2000/svg" viewBox="0 0 660.21 391.63">
  <path d="M568.53,854l10.33-84.38H789.8l2.53-21.09H581.39l10.55-84.38H802.88L805.41,643H594.47l10.34-84.38H900.12L863.84,854Z" transform="translate(-556.32 -558.63)" />
  <path d="M884.93,854l10.34-84.38h210.94l2.53-21.09H897.8l10.55-84.38h210.93l2.54-21.09H910.88l10.33-84.38h295.32L1180.25,854Z" transform="translate(-556.32 -558.63)" />
  <path d="M634.93,950.26H612.47l6.91-56.15h-5.62l-6.91,56.15H584.39l6.91-56.15h-5.62l-6.9,56.15H556.32L566,871.65h78.62Z" transform="translate(-556.32 -558.63)" />
  <path d="M640.54,950.26l2.76-22.46h56.15l.67-5.61H644l2.81-22.46h56.15l.67-5.62H647.45l2.75-22.46h78.62l-9.66,78.61Z" transform="translate(-556.32 -558.63)" />
  <path d="M724.77,950.26l2.75-22.46h56.16l.67-5.61H728.2L731,899.73h56.15l.67-5.62H731.68l2.75-22.46H813l-9.65,78.61Z" transform="translate(-556.32 -558.63)" />
  <path d="M866.45,894.11l-6.91,56.15H837.08l6.9-56.15H815.91l2.75-22.46h78.61l-2.75,22.46Z" transform="translate(-556.32 -558.63)" />
  <path d="M915.69,950.26H893.23l9.66-78.61h22.46Z" transform="translate(-556.32 -558.63)" />
  <path d="M948.71,910l-4.94,40.26H921.31L931,871.65h15.9l35.32,40.26,4.94-40.26h22.46l-9.66,78.61H984Z" transform="translate(-556.32 -558.63)" />
  <path d="M1093.81,871.65l-2.76,22.46H1034.9l-4.15,33.69h33.69l.67-5.61H1037l2.8-22.46h50.54l-6.23,50.53h-78.61l9.65-78.61Z" transform="translate(-556.32 -558.63)" />
  <path d="M1178,871.65l-2.76,22.46h-56.15l-.67,5.62h56.15l-6.23,50.53h-78.62l2.76-22.46h56.15l.67-5.61h-56.15l6.23-50.54Z" transform="translate(-556.32 -558.63)" />
</svg>