<?xml version="1.0" encoding="utf-8"?>
<!-- Generator: Adobe Illustrator 24.2.3, SVG Export Plug-In . SVG Version: 6.00 Build 0)  -->
<svg version="1.1" id="Layer_1" xmlns="http://www.w3.org/2000/svg" xmlns:xlink="http://www.w3.org/1999/xlink" x="0px" y="0px"
	 viewBox="0 0 2324.7 293.9" style="enable-background:new 0 0 2324.7 293.9;" xml:space="preserve">
<g>
	<polygon points="293.9,293.9 210,293.9 235.8,84 214.8,84 189,293.9 105,293.9 130.8,84 109.8,84 84,293.9 0,293.9 36.1,0 330.1,0 
			"/>
</g>
<g>
	<polygon points="314.9,293.9 325.2,210 535.2,210 537.7,189 327.7,189 338.2,105 548.2,105 550.7,84 340.8,84 351.1,0 645,0 
		608.9,293.9 	"/>
</g>
<g>
	<polygon points="629.9,293.9 640.2,210 850.1,210 852.7,189 642.7,189 653.2,105 863.1,105 865.7,84 655.7,84 666,0 959.9,0 
		923.8,293.9 	"/>
</g>
<g>
	<polygon points="1159.6,84 1133.8,293.9 1049.8,293.9 1075.6,84 970.7,84 980.9,0 1274.9,0 1264.6,84 	"/>
</g>
<g>
	<polygon points="1343.8,293.9 1259.8,293.9 1295.9,0 1379.9,0 	"/>
</g>
<g>
	<polygon points="1467.2,143.4 1448.7,293.9 1364.7,293.9 1400.9,0 1460.3,0 1592.3,150.5 1610.8,0 1694.8,0 1658.7,293.9 
		1599.3,293.9 	"/>
</g>
<g>
	<polygon points="2009.7,0 1999.5,84 1789.5,84 1774,210 1899.9,210 1902.5,189 1797.5,189 1808,105 1996.9,105 1973.6,293.9 
		1679.7,293.9 1715.8,0 	"/>
</g>
<g>
	<polygon points="2324.7,0 2314.4,84 2104.4,84 2101.9,105 2311.9,105 2288.6,293.9 1994.6,293.9 2004.9,210 2214.9,210 2217.4,189 
		2007.4,189 2030.7,0 	"/>
</g>
</svg>
