<?xml version="1.0" encoding="utf-8"?>
<!-- Generator: Adobe Illustrator 24.2.3, SVG Export Plug-In . SVG Version: 6.00 Build 0)  -->
<svg version="1.1" id="Layer_1" xmlns="http://www.w3.org/2000/svg" xmlns:xlink="http://www.w3.org/1999/xlink" x="0px" y="0px"
	 viewBox="0 0 512 512" style="enable-background:new 0 0 512 512;" xml:space="preserve">
<style type="text/css">
	.st0{fill:#7E805D;}
</style>
<g transform="translate(1)">
	<g>
		<polygon class="st0" points="17.3,156 79,145 124,116.5 177,116.5 215,141 428,141 488,146 501,182 492.7,196.7 434,209 
			364.7,205 374,236.3 355,266 336.7,272 347,304 336.7,323.9 306,339 307,365 275.1,388.6 255,378.2 220,398 109,398 81,373 
			24,368 12,353 7,201 		"/>
		<path d="M469.9,132.6h-256c-19.2-24.7-39.3-27.4-67.7-27.4h-0.9c-38.4,0-67.7,26.5-76.8,36.6H35.6C15.5,141.7-1,158.2-1,178.3
			v165.5c0,20.1,16.5,35.7,36.6,35.7h33.8c35.7,26.5,48.5,27.4,112.5,27.4c33.8,0,72.2-9.1,83.2-11c21,5.5,43-5.5,50.3-26.5
			c2.7-8.2,2.7-18.3,0-26.5c16.5,0,32-11,37.5-27.4l0.9-0.9c3.7-10.1,2.7-21.9-1.8-31.1c-0.8-1.6-1.7-3.1-2.7-4.6
			c19.2-3.7,33.8-21,33.8-41.1c0-8.2-2.7-16.5-7.3-22.9h94.2c22.9,0,41.1-18.3,41.1-41.1S492.7,132.6,469.9,132.6z M77.6,363
			c-1.8-0.9-3.7-1.8-5.5-1.8H35.6c-10.1,0-18.3-8.2-18.3-17.4V178.3c0-10.1,8.2-18.3,18.3-18.3h36.6c2.7,0,5.5-0.9,7.3-3.7
			c0,0,27.4-32,64.9-32.9h0.9c28.3,0,41.1,1.8,55.8,23.8l0.9,0.9l7.2,8.5c22,28.9,45.9,60.6,55,73.8c9.1,14.6,11.9,26.5,6.4,33.8
			c-3.8,4.6-11.6,6.6-18.8,5.5c-1.1-0.2-2.1-0.5-3.1-1c-11-4.6-30.2-17.4-51.2-34.7c-1-0.7-2-1.3-3.1-1.6
			c-24.9-20.9-48.1-44.7-52.7-56c-1.8-4.6-7.3-6.4-11.9-4.6c-4.6,1.8-6.4,7.3-4.6,11.9c5.7,13.4,27.9,37,52.5,58.3
			c-2,3-3.6,6.1-5,9.3l-0.9,1.8c-3.5,10.1-2.8,20.7,1.2,29.7c-14,2.8-26.5,12.8-31.4,27c-7.3,21,4.6,44.8,25.6,52.1l62.6,21.7
			c-14.5,2.6-31.9,4.8-48,4.8C117.9,388.6,110.5,387.7,77.6,363z M188.3,301.7l71.3,24.7l24.4,8.5c4.3,1.7,7.8,4.3,10.3,7.5
			c0.7,1,1.4,2.1,1.9,3.2c2.7,5.5,2.7,11.9,0.9,17.4c-3.7,11.9-16.5,18.3-29.3,13.7c-0.9,0-1.8-0.2-2.7-0.3l-91.5-31.7
			c-12.8-4.6-18.3-17.4-14.6-29.3c1.8-5.5,6.4-10.1,11.9-12.8c2.7-1.8,6.4-2.7,10.1-2.7C183.7,299.9,186.4,300.8,188.3,301.7z
			 M321.7,280.7c5.5,1.8,10.1,5.5,12.8,11c2.7,4.6,2.7,11,0.9,16.5l-0.9,1.8c-1.4,4.1-3.8,7.7-7.2,10.4c-5.5,3.6-12.4,4.6-19.4,2.4
			l-18.3-6.4c-1.7-0.6-3.4-0.7-4.9-0.5L265,309L202,287.1c-11.9-4.6-17.4-16.5-13.7-28.3l0.9-1.8c0-0.9,0.9-2.7,1.8-3.7
			c0.8,0.6,1.5,1.1,2.2,1.7c16.4,13,32.5,23.9,44.4,29.2c0.3,0.1,0.5,0.2,0.8,0.3c0.7,0.3,1.3,0.5,1.9,0.8c4.4,1.9,9.2,2.7,14,2.7
			c0.5,0,1,0,1.5,0c6.3,0,12.7-1.5,18.1-4.4c7.2-3.2,13.7-8,18.5-13.9L321.7,280.7z M341.9,259.7h-3.7l-21-2.7
			c-1.4,0-2.9,0.3-4.2,0.8l-20.5-7.2c-0.5-0.2-1.1-0.4-1.6-0.5c-0.9-8.1-4.3-18-12.1-29.7c-1-1.7-2.3-3.6-3.7-5.7l68.6-1.6
			c5.5,0,11,2.7,14.6,6.4c3.7,4.6,6.4,10.1,6.4,16.5C364.7,248.7,354.7,259.7,341.9,259.7z M469.9,196.6H343.7c-0.9,0-0.9,0-1.8,0
			h-77.7c-0.6,0-1.1,0.1-1.7,0.1c-10.1-13.9-22.8-30.5-34.6-45.8h242c12.8,0,22.9,10.1,22.9,22.9S482.7,196.6,469.9,196.6z"/>
	</g>
</g>
</svg>
