<svg id="Layer_1" data-name="Layer 1" xmlns="http://www.w3.org/2000/svg" viewBox="0 0 512 301.72"><path d="M470.86,132.57h-256c-19.2-24.69-39.32-27.43-67.66-27.43h-.91c-38.4,0-67.66,26.52-76.8,36.57H36.57A36.68,36.68,0,0,0,0,178.29V343.77c0,20.12,16.46,35.66,36.57,35.66H70.4c35.66,26.51,48.46,27.43,112.46,27.43,33.83,0,72.23-9.15,83.2-11,21,5.48,43-5.49,50.28-26.52a43.62,43.62,0,0,0,0-26.51c16.46,0,32-11,37.49-27.43l.91-.91a40.6,40.6,0,0,0-1.83-31.09,39,39,0,0,0-2.7-4.58A42.14,42.14,0,0,0,384,237.71a40,40,0,0,0-7.31-22.85h94.17a41.15,41.15,0,0,0,0-82.29ZM78.63,363c-1.83-.91-3.66-1.83-5.49-1.83H36.57c-10.06,0-18.29-8.23-18.29-17.37V178.29A18.34,18.34,0,0,1,36.57,160H73.14a8.32,8.32,0,0,0,7.32-3.66s27.43-32,64.91-32.91h.91c28.35,0,41.15,1.83,55.77,23.77l.92.91,7.16,8.46c22,28.9,45.95,60.65,55,73.83,9.14,14.63,11.89,26.51,6.4,33.83-3.84,4.61-11.56,6.63-18.81,5.52a17,17,0,0,1-3.13-.95c-11-4.57-30.17-17.37-51.2-34.74a10.65,10.65,0,0,0-3.05-1.6c-24.92-20.9-48.09-44.68-52.72-56-1.83-4.57-7.32-6.4-11.89-4.57s-6.4,7.31-4.57,11.88c5.73,13.38,28,37,52.55,58.32a53,53,0,0,0-5,9.34l-.91,1.83A40.17,40.17,0,0,0,174,283a41.91,41.91,0,0,0-31.41,27c-7.32,21,4.57,44.8,25.6,52.12l62.6,21.67c-14.53,2.56-32,4.84-48,4.84C118.86,388.57,111.54,387.66,78.63,363Zm110.63-61.26,71.31,24.69,24.4,8.49a23.71,23.71,0,0,1,10.26,7.47,26.23,26.23,0,0,1,1.91,3.24,22.91,22.91,0,0,1,.92,17.37c-3.66,11.89-16.46,18.29-29.26,13.71a22.61,22.61,0,0,1-2.7-.33l-91.47-31.67c-12.8-4.57-18.29-17.37-14.63-29.25,1.83-5.49,6.4-10.06,11.89-12.8a18.41,18.41,0,0,1,10.05-2.75A17.44,17.44,0,0,1,189.26,301.71Zm133.48-21a21.59,21.59,0,0,1,12.8,11c2.75,4.57,2.75,11,.92,16.45l-.92,1.83a21.84,21.84,0,0,1-7.16,10.39A22.83,22.83,0,0,1,309,322.74l-18.29-6.4a10.21,10.21,0,0,0-4.85-.45L266,309,203,287.09c-11.88-4.57-17.37-16.46-13.71-28.35l.91-1.83a7,7,0,0,1,1.83-3.65l2.24,1.72c16.37,13,32.5,23.88,44.44,29.15.25.12.51.23.76.33.66.28,1.3.55,1.93.8a36,36,0,0,0,14,2.71c.5,0,1,0,1.51,0A39.09,39.09,0,0,0,275,283.59a50.1,50.1,0,0,0,18.45-13.88Zm20.12-21H339.2l-21-2.75a11.65,11.65,0,0,0-4.18.78l-20.5-7.18a11.36,11.36,0,0,0-1.61-.49c-.93-8.11-4.32-18-12.11-29.68-1-1.68-2.27-3.61-3.69-5.73L344.69,213a21.54,21.54,0,0,1,14.62,6.4c3.66,4.57,6.4,10.06,6.4,16.46C365.71,248.69,355.66,259.66,342.86,259.66Zm128-63.09H265.14a11.44,11.44,0,0,0-1.68.13c-10.12-13.9-22.78-30.53-34.56-45.84h242a22.86,22.86,0,1,1,0,45.71Z" transform="translate(0 -105.14)"/></svg>